#!OML:ASF F:\VICON\USERDATA\INSTALL\Justin_Nancy\Justin_Nancy.ASF
:FULLY-SPECIFIED
:DEGREES
158
root -0.501014 17.5476 32.0537 3.34421 0.0609334 -1.06623
lowerback 4.72928 3.49051 4.34078
upperback -0.557743 4.95031 1.50485
thorax -2.98996 2.40235 -1.21975
lowerneck -22.9736 -4.44336 -9.67528
upperneck 15.8124 -4.73824 8.62397
head 9.18296 -1.85688 3.88709
rclavicle -1.36167e-014 7.95139e-016
rhumerus -39.7132 7.04844 -89.146
rradius 129.633
rwrist -22.2336
rhand -6.90168 22.6849
rfingers 7.12502
rthumb 18.9654 -6.41054
lclavicle -1.36167e-014 7.95139e-016
lhumerus -58.9856 -7.10089 94.7243
lradius 112.066
lwrist 24.0099
lhand -15.0987 9.43496
lfingers 7.12502
lthumb 11.0695 39.123
rfemur 6.31288 -0.017902 26.7955
rtibia 30.4384
rfoot 0.617281 -2.52177
rtoes -13.1075
lfemur -30.3067 3.7543 -18.2515
ltibia 65.8199
lfoot -1.99752 -0.172472
ltoes -15.7648
159
root -0.49072 17.6427 32.4843 3.43059 0.429619 -1.53652
lowerback 4.38481 3.54393 5.04903
upperback -0.881152 5.05446 1.52444
thorax -3.06886 2.43565 -1.58353
lowerneck -22.965 -4.35722 -9.56411
upperneck 16.1484 -4.67747 8.623
head 9.28937 -1.82213 3.88342
rclavicle 4.69132e-014 -1.59028e-014
rhumerus -40.6864 7.02556 -89.4175
rradius 129.816
rwrist -20.9623
rhand -7.241 23.286
rfingers 7.12502
rthumb 18.639 -5.84106
lclavicle 4.69132e-014 -1.59028e-014
lhumerus -60.2019 -6.60827 94.3025
lradius 112.22
lwrist 24.1094
lhand -15.1028 9.98147
lfingers 7.12502
lthumb 11.0656 39.6698
rfemur 7.9589 -0.192467 27.0168
rtibia 28.477
rfoot 4.91749 -1.46143
rtoes -9.63972
lfemur -30.3849 3.95035 -18.1912
ltibia 62.4592
lfoot -2.84379 0.251383
ltoes -16.3066
160
root -0.475396 17.7302 32.9116 3.84549 0.921335 -1.82703
lowerback 3.73188 3.56769 5.63547
upperback -1.29539 5.08971 1.49345
thorax -3.07755 2.43548 -1.90869
lowerneck -23.1125 -4.22667 -9.35461
upperneck 16.4474 -4.53833 8.47364
head 9.39587 -1.75759 3.82175
rclavicle 3.77691e-015 -3.97569e-015
rhumerus -41.2687 6.99374 -89.5235
rradius 129.661
rwrist -19.798
rhand -7.53929 23.6673
rfingers 7.12502
rthumb 18.3521 -5.48699
lclavicle 3.77691e-015 -3.97569e-015
lhumerus -61.3772 -6.14955 93.9238
lradius 112.461
lwrist 24.2087
lhand -15.0266 10.6887
lfingers 7.12502
lthumb 11.1391 40.3731
rfemur 9.35624 -0.467085 26.9994
rtibia 26.2758
rfoot 9.35056 -0.592235
rtoes -7.59556
lfemur -30.8671 3.9462 -18.397
ltibia 59.0359
lfoot -3.5415 0.443277
ltoes -16.9647
161
root -0.465919 17.8137 33.3444 4.30363 1.31307 -2.18517
lowerback 2.85876 3.63121 6.18754
upperback -1.54695 5.14534 1.52559
thorax -2.80024 2.45714 -2.12692
lowerneck -23.1998 -4.1571 -9.4354
upperneck 16.6612 -4.42516 8.49895
head 9.47715 -1.70583 3.86523
rclavicle 3.38431e-014 1.11319e-014
rhumerus -41.88 6.94139 -89.5524
rradius 129.763
rwrist -18.9795
rhand -7.37877 24.2232
rfingers 7.12502
rthumb 18.5065 -4.91651
lclavicle 3.38431e-014 1.11319e-014
lhumerus -62.2629 -5.5968 93.5174
lradius 112.669
lwrist 24.0656
lhand -14.6302 11.6749
lfingers 7.12502
lthumb 11.5214 41.3383
rfemur 10.7255 -0.385995 27.1728
rtibia 24.0985
rfoot 13.2831 -0.274345
rtoes -6.67263
lfemur -31.4006 3.78788 -18.4341
ltibia 55.5087
lfoot -3.54417 0.453579
ltoes -15.2013
162
root -0.460702 17.8938 33.7745 4.56812 1.60687 -2.53411
lowerback 2.14593 3.68877 6.67166
upperback -1.63694 5.18557 1.56296
thorax -2.45241 2.47809 -2.30541
lowerneck -23.2978 -4.27624 -9.73221
upperneck 17.0152 -4.54168 8.67838
head 9.64264 -1.75766 3.96726
rclavicle 2.85753e-014 3.4191e-014
rhumerus -42.3886 7.09913 -89.674
rradius 129.892
rwrist -18.0727
rhand -7.42592 24.3496
rfingers 7.12502
rthumb 18.4612 -4.79441
lclavicle 2.85753e-014 3.4191e-014
lhumerus -62.7857 -5.0404 92.9738
lradius 112.732
lwrist 23.7813
lhand -14.7469 13.2236
lfingers 7.12502
lthumb 11.4089 42.8932
rfemur 12.1104 -0.00917503 27.4627
rtibia 22.2822
rfoot 16.8885 -0.0501182
rtoes -5.31569
lfemur -31.6603 3.33255 -18.2826
ltibia 51.8672
lfoot -3.13827 0.241983
ltoes -11.8427
163
root -0.454539 17.9556 34.1958 4.86209 1.81931 -2.60464
lowerback 1.28876 3.78572 6.91805
upperback -1.63908 5.24402 1.49217
thorax -1.94025 2.51981 -2.4488
lowerneck -23.1829 -4.47393 -9.96133
upperneck 17.0094 -4.7725 8.78373
head 9.6534 -1.87057 4.00707
rclavicle -7.35255e-014 -3.81667e-014
rhumerus -41.789 7.72998 -89.5531
rradius 129.421
rwrist -17.7493
rhand -7.90468 24.0023
rfingers 7.12502
rthumb 18.0006 -5.18468
lclavicle -7.35255e-014 -3.81667e-014
lhumerus -63.1947 -4.59279 92.3927
lradius 112.851
lwrist 23.7101
lhand -15.2306 13.9291
lfingers 7.12502
lthumb 10.9423 43.624
rfemur 13.3263 0.597693 27.5173
rtibia 20.8208
rfoot 20.5322 0.197677
rtoes -2.21807
lfemur -31.7432 2.6298 -18.3713
ltibia 48.2614
lfoot -2.75387 -0.0803375
ltoes -11.1634
164
root -0.445857 18.0039 34.6173 5.32072 2.03825 -2.72004
lowerback 0.266006 3.84761 7.20007
upperback -1.74121 5.24268 1.44787
thorax -1.44419 2.52952 -2.57475
lowerneck -23.2275 -4.55893 -10.077
upperneck 17.0442 -4.88939 8.96048
head 9.69428 -1.91119 4.07234
rclavicle 5.39949e-014 -1.98785e-014
rhumerus -40.5831 9.02362 -89.1602
rradius 128.771
rwrist -17.8244
rhand -8.48261 23.1065
rfingers 7.12502
rthumb 17.4444 -6.13073
lclavicle 5.39949e-014 -1.98785e-014
lhumerus -63.6868 -4.12951 91.8394
lradius 113.081
lwrist 24.1842
lhand -15.6603 14.0404
lfingers 7.12502
lthumb 10.5279 43.7567
rfemur 14.3987 1.31326 27.6782
rtibia 19.3502
rfoot 23.8676 0.285611
rtoes 1.06086
lfemur -32.0532 1.86931 -18.3909
ltibia 45.1488
lfoot -2.57042 -0.580146
ltoes -12.9977
165
root -0.430887 18.0473 35.0483 5.86178 2.36112 -4.0048
lowerback -0.842511 3.95237 8.74188
upperback -1.87902 5.28735 1.72887
thorax -0.858351 2.5511 -3.04788
lowerneck -24.0376 -4.82405 -10.3191
upperneck 17.7066 -5.20264 9.25446
head 10.1226 -2.01969 4.18122
rclavicle 1.39646e-014 -2.94201e-014
rhumerus -39.992 9.77308 -88.8718
rradius 128.56
rwrist -17.1101
rhand -8.49073 22.6847
rfingers 7.12502
rthumb 17.4366 -6.55323
lclavicle 1.39646e-014 -2.94201e-014
lhumerus -63.9904 -3.80985 91.5034
lradius 113.296
lwrist 24.7902
lhand -16.2096 14.1518
lfingers 7.12502
lthumb 9.99796 43.8944
rfemur 15.0431 2.12326 29.1614
rtibia 18.4562
rfoot 25.9881 0.159769
rtoes 2.79424
lfemur -32.7403 1.3361 -17.0875
ltibia 42.5438
lfoot -2.06519 -1.48609
ltoes -13.587
166
root -0.395965 18.0639 35.4914 6.98508 3.19623 -8.08783
lowerback -2.96957 4.18281 13.4195
upperback -2.15411 5.25236 2.63969
thorax 0.334467 2.53725 -4.48709
lowerneck -25.6493 -5.25129 -10.2225
upperneck 19.0409 -5.66994 8.91535
head 10.9316 -2.23024 3.98439
rclavicle 2.16178e-015 3.89618e-014
rhumerus -39.9728 10.1364 -88.8444
rradius 128.564
rwrist -16.3969
rhand -8.16296 23.3376
rfingers 7.12502
rthumb 17.752 -5.87208
lclavicle 2.16178e-015 3.89618e-014
lhumerus -64.1032 -3.51233 91.1376
lradius 113.572
lwrist 25.3678
lhand -16.0851 13.7183
lfingers 7.12502
lthumb 10.118 43.455
rfemur 14.7664 2.60067 33.5369
rtibia 17.75
rfoot 27.1378 0.251586
rtoes 4.45509
lfemur -34.748 1.18486 -12.7023
ltibia 40.7532
lfoot -1.35814 -3.19123
ltoes -13.3207
167
root -0.385725 18.0709 35.8987 7.4088 3.83745 -9.79126
lowerback -3.71231 4.25781 15.2779
upperback -2.41184 5.1868 3.03547
thorax 0.570168 2.49356 -5.02804
lowerneck -23.6167 -4.37016 -10.2126
upperneck 17.5298 -4.5441 8.84613
head 9.89751 -1.76665 4.11732
rclavicle 7.10158e-014 2.38542e-014
rhumerus -40.3444 10.4621 -88.9987
rradius 128.584
rwrist -16.0529
rhand -8.02601 24.5159
rfingers 7.12502
rthumb 17.8838 -4.68184
lclavicle 7.10158e-014 2.38542e-014
lhumerus -64.3789 -3.21179 90.826
lradius 113.901
lwrist 25.9707
lhand -15.4134 13.2082
lfingers 7.12502
lthumb 10.766 42.9123
rfemur 13.7571 3.3522 35.6463
rtibia 20.1497
rfoot 25.9984 -0.00113005
rtoes 5.65444
lfemur -35.3259 0.646988 -10.8085
ltibia 37.9278
lfoot -0.410712 -4.91849
ltoes -14.5628
168
root -0.366197 18.0686 36.3275 7.48323 4.20686 -11.1724
lowerback -4.36057 4.33027 16.7787
upperback -2.38829 5.08708 3.46823
thorax 1.01027 2.46479 -5.32753
lowerneck -23.8895 -4.39083 -10.4079
upperneck 17.4276 -4.46108 8.80931
head 9.90377 -1.7398 4.14703
rclavicle 1.74309e-014 2.3059e-014
rhumerus -40.6113 10.9172 -88.9673
rradius 128.603
rwrist -15.7811
rhand -7.8743 24.3081
rfingers 7.12502
rthumb 18.0298 -4.87625
lclavicle 1.74309e-014 2.3059e-014
lhumerus -64.5727 -2.75071 90.7307
lradius 114.297
lwrist 26.5721
lhand -15.2939 13.3036
lfingers 7.12502
lthumb 10.8813 43.0017
rfemur 13.1344 3.74897 37.1422
rtibia 22.8721
rfoot 24.3436 0.0395536
rtoes 6.61203
lfemur -35.2797 0.0847395 -9.31881
ltibia 35.3344
lfoot -0.00841644 -6.47765
ltoes -19.5058
